<svg id="Layer_1" data-name="Layer 1" xmlns="http://www.w3.org/2000/svg" viewBox="0 0 29.33 29.33"><defs><style>.cls-1{fill:#652d90;}.cls-2{fill:#fff;}</style></defs><title>togetherList_fist</title><circle class="cls-1" cx="14.67" cy="14.67" r="14.67"/><path class="cls-2" d="M11.18,13.06a0.92,0.92,0,0,0,1,.74h3.16c0.53,2,1.12,2.45,3.2,2.45a2,2,0,0,0,.86,1.85,2.63,2.63,0,0,0,2.13.11,3,3,0,0,1-.07.3c-0.35,1-.67,2-1.06,2.92a4.17,4.17,0,0,1-.78,1.22,1.91,1.91,0,0,0-.6,1.51c0,0.38,0,4.55,0,5,0,10-9.37,10-9.37,0,0-.43,0-4.67,0-5.1,0-.67,0-1.34,0-2a2.26,2.26,0,0,0-.73-1.47c-0.48-.47-0.93-1-1.42-1.43A2.06,2.06,0,0,1,6.81,17c0.44-1.77.91-3.54,1.46-5.28a2.05,2.05,0,0,1,2.09-1.53c1.17,0,2.34,0,3.51,0a1.41,1.41,0,0,1,1.49,1.28,1.39,1.39,0,0,1-1,1.51,2.56,2.56,0,0,1-.65.06H11.18Z"/><path class="cls-2" d="M16.51,13.8a4.14,4.14,0,0,1,.21-0.61q0.92-1.78,1.86-3.56a1.23,1.23,0,0,1,1.32-.7,1.15,1.15,0,0,1,1,1,1.59,1.59,0,0,1-.12.88c-0.6,1.22-1.24,2.42-1.89,3.62a1.22,1.22,0,0,1-1.44.64A1.29,1.29,0,0,1,16.51,13.8Z"/><path class="cls-2" d="M20.64,17.29a1.21,1.21,0,0,1-1.15-1.68c0.45-1,1-2,1.51-2.91a1.19,1.19,0,0,1,1.61-.39,1.2,1.2,0,0,1,.55,1.57c-0.46,1-1,1.91-1.48,2.85A1.14,1.14,0,0,1,20.64,17.29Z"/><path class="cls-2" d="M16.63,11.21a1.92,1.92,0,0,0-1.94-1.74c0.39-.74.73-1.46,1.14-2.12A1.19,1.19,0,0,1,17.4,7,1.17,1.17,0,0,1,18,8.5C17.55,9.42,17.08,10.31,16.63,11.21Z"/><path class="cls-2" d="M10.9,9.47c0.37-.79.69-1.53,1.06-2.24a1.21,1.21,0,0,1,1.59-.48,1.23,1.23,0,0,1,.63,1.54,8.59,8.59,0,0,1-.45,1,0.37,0.37,0,0,1-.27.17C12.64,9.48,11.81,9.47,10.9,9.47Z"/></svg>